<svg width="83" height="95" viewBox="0 0 83 95" fill="none" xmlns="http://www.w3.org/2000/svg">
<g clip-path="url(#clip0_4_228)">
<path fill-rule="evenodd" clip-rule="evenodd" d="M7.5678 0C3.41484 0 0.0488892 3.3725 0.0488892 7.53172V87.452C0.0488892 91.6127 3.41484 94.9837 7.5678 94.9837H75.4114C79.5629 94.9837 82.9318 91.6127 82.9318 87.452V30.1477L54.9149 0L7.5678 0Z" fill="#45B058"/>
<path d="M30.0964 64.1206C30.2831 64.3343 30.3899 64.6015 30.3899 64.8954C30.3899 65.4565 29.9363 65.9642 29.3479 65.9642C29.0811 65.9642 28.7877 65.8573 28.6009 65.6168C27.5605 64.361 25.7982 63.558 24.1441 63.558C20.2476 63.558 17.2862 66.552 17.2862 70.8018C17.2862 75.0248 20.249 78.044 24.1441 78.044C25.8249 78.044 27.4789 77.3226 28.6009 76.0119C28.7862 75.7982 29.0811 75.666 29.3479 75.666C29.963 75.666 30.3899 76.1989 30.3899 76.7615C30.3899 77.0287 30.2831 77.2959 30.0964 77.5096C28.7076 78.9524 26.8135 80.0227 24.1456 80.0227C19.0218 80.0227 14.9919 76.2806 14.9919 70.8018C14.9919 65.3229 19.0218 61.5808 24.1456 61.5808C26.8135 61.5823 28.7343 62.651 30.0964 64.1206ZM40.1779 80.0242C37.5368 80.0242 35.4543 79.1425 33.9337 77.805C33.6936 77.5913 33.5868 77.2974 33.5868 77.0035C33.5868 76.4676 33.987 75.8798 34.6273 75.8798C34.8407 75.8798 35.0808 75.9332 35.2676 76.0935C36.4948 77.1905 38.2022 78.044 40.258 78.044C43.4342 78.044 44.448 76.334 44.448 74.9699C44.448 70.3728 33.907 72.9125 33.907 66.5505C33.907 63.6114 36.5215 61.606 40.0179 61.606C42.3122 61.606 44.2879 62.2992 45.7286 63.5031C45.9687 63.7168 46.1021 64.0107 46.1021 64.3046C46.1021 64.839 45.6485 65.3734 45.0601 65.3734C44.8467 65.3734 44.6066 65.2932 44.4198 65.1329C43.1126 64.0642 41.4852 63.5832 39.8563 63.5832C37.722 63.5832 36.1999 64.7321 36.1999 66.4169C36.1999 70.4262 46.7409 68.1269 46.7409 74.7828C46.7423 77.3775 44.9816 80.0242 40.1779 80.0242ZM65.3655 63.319L59.2012 78.66C58.9078 79.3814 58.186 79.8624 57.4405 79.8624H57.3871C56.6134 79.8624 55.8931 79.3814 55.5982 78.66L49.4591 63.319C49.4058 63.1854 49.3791 63.0518 49.3791 62.8915C49.3791 62.3571 49.8578 61.7144 50.5796 61.7144C51.0331 61.7144 51.46 61.9816 51.6468 62.4358L57.4108 77.2677L63.1749 62.4358C63.3349 62.0083 63.7618 61.7144 64.242 61.7144C64.9357 61.7144 65.4425 62.2755 65.4425 62.8915C65.444 63.0251 65.4173 63.1854 65.3655 63.319Z" fill="white"/>
<path fill-rule="evenodd" clip-rule="evenodd" d="M83.0015 30.2174V31.7018H64.0301C64.0301 31.7018 54.6748 29.8315 54.9475 21.7461C54.9475 21.7461 55.2558 30.2174 63.8448 30.2174H83.0015Z" fill="#45B058"/>
<path opacity="0.5" fill-rule="evenodd" clip-rule="evenodd" d="M54.9846 0.00878906V21.6228C54.9846 24.0809 56.6208 30.2188 64.0316 30.2188H83.003L54.9846 0.00878906Z" fill="white"/>
</g>
<defs>
<clipPath id="clip0_4_228">
<rect width="83" height="95" fill="white"/>
</clipPath>
</defs>
</svg>
