<svg width="83" height="95" viewBox="0 0 83 95" fill="none" xmlns="http://www.w3.org/2000/svg">
<g clip-path="url(#clip0_7_2)">
<path fill-rule="evenodd" clip-rule="evenodd" d="M7.56783 0C3.41487 0 0.0489197 3.3725 0.0489197 7.53172V87.452C0.0489197 91.6127 3.41487 94.9837 7.56783 94.9837H75.4114C79.5629 94.9837 82.9318 91.6127 82.9318 87.452V30.1477L54.9149 0L7.56783 0Z" fill="#C000B8"/>
<path fill-rule="evenodd" clip-rule="evenodd" d="M83.0015 30.2174V31.7018H64.0301C64.0301 31.7018 54.6748 29.8315 54.9475 21.7461C54.9475 21.7461 55.2558 30.2174 63.8448 30.2174H83.0015Z" fill="#C000B8"/>
<path opacity="0.5" fill-rule="evenodd" clip-rule="evenodd" d="M54.9846 0.00878906V21.6228C54.9846 24.0809 56.6208 30.2188 64.0316 30.2188H83.003L54.9846 0.00878906Z" fill="white"/>
<path d="M13.78 76.12C12.9933 76.12 12.2533 75.9467 11.56 75.6C10.88 75.2533 10.3333 74.76 9.92 74.12L10.78 73.12C11.1667 73.68 11.6133 74.1067 12.12 74.4C12.6267 74.6933 13.1867 74.84 13.8 74.84C15.5333 74.84 16.4 73.8133 16.4 71.76V63.28H11.28V62H17.86V71.7C17.86 73.18 17.5133 74.2867 16.82 75.02C16.14 75.7533 15.1267 76.12 13.78 76.12ZM28.2595 76.12C27.2195 76.12 26.2195 75.9533 25.2595 75.62C24.3129 75.2733 23.5795 74.8333 23.0595 74.3L23.6395 73.16C24.1329 73.64 24.7929 74.0467 25.6195 74.38C26.4595 74.7 27.3395 74.86 28.2595 74.86C29.1395 74.86 29.8529 74.7533 30.3995 74.54C30.9595 74.3133 31.3662 74.0133 31.6195 73.64C31.8862 73.2667 32.0195 72.8533 32.0195 72.4C32.0195 71.8533 31.8595 71.4133 31.5395 71.08C31.2329 70.7467 30.8262 70.4867 30.3195 70.3C29.8129 70.1 29.2529 69.9267 28.6395 69.78C28.0262 69.6333 27.4129 69.48 26.7995 69.32C26.1862 69.1467 25.6195 68.92 25.0995 68.64C24.5929 68.36 24.1795 67.9933 23.8595 67.54C23.5529 67.0733 23.3995 66.4667 23.3995 65.72C23.3995 65.0267 23.5795 64.3933 23.9395 63.82C24.3129 63.2333 24.8795 62.7667 25.6395 62.42C26.3995 62.06 27.3729 61.88 28.5595 61.88C29.3462 61.88 30.1262 61.9933 30.8995 62.22C31.6729 62.4333 32.3395 62.7333 32.8995 63.12L32.3995 64.3C31.7995 63.9 31.1595 63.6067 30.4795 63.42C29.8129 63.2333 29.1662 63.14 28.5395 63.14C27.6995 63.14 27.0062 63.2533 26.4595 63.48C25.9129 63.7067 25.5062 64.0133 25.2395 64.4C24.9862 64.7733 24.8595 65.2 24.8595 65.68C24.8595 66.2267 25.0129 66.6667 25.3195 67C25.6395 67.3333 26.0529 67.5933 26.5595 67.78C27.0795 67.9667 27.6462 68.1333 28.2595 68.28C28.8729 68.4267 29.4795 68.5867 30.0795 68.76C30.6929 68.9333 31.2529 69.16 31.7595 69.44C32.2795 69.7067 32.6929 70.0667 32.9995 70.52C33.3195 70.9733 33.4795 71.5667 33.4795 72.3C33.4795 72.98 33.2929 73.6133 32.9195 74.2C32.5462 74.7733 31.9729 75.24 31.1995 75.6C30.4395 75.9467 29.4595 76.12 28.2595 76.12ZM44.9242 76.12C43.8709 76.12 42.8909 75.9467 41.9842 75.6C41.0909 75.24 40.3109 74.74 39.6442 74.1C38.9909 73.4467 38.4776 72.6933 38.1042 71.84C37.7442 70.9733 37.5642 70.0267 37.5642 69C37.5642 67.9733 37.7442 67.0333 38.1042 66.18C38.4776 65.3133 38.9909 64.56 39.6442 63.92C40.3109 63.2667 41.0909 62.7667 41.9842 62.42C42.8776 62.06 43.8576 61.88 44.9242 61.88C45.9776 61.88 46.9509 62.06 47.8442 62.42C48.7376 62.7667 49.5109 63.26 50.1642 63.9C50.8309 64.54 51.3442 65.2933 51.7042 66.16C52.0776 67.0267 52.2642 67.9733 52.2642 69C52.2642 70.0267 52.0776 70.9733 51.7042 71.84C51.3442 72.7067 50.8309 73.46 50.1642 74.1C49.5109 74.74 48.7376 75.24 47.8442 75.6C46.9509 75.9467 45.9776 76.12 44.9242 76.12ZM44.9242 74.8C45.7642 74.8 46.5376 74.66 47.2442 74.38C47.9642 74.0867 48.5842 73.68 49.1042 73.16C49.6376 72.6267 50.0509 72.0133 50.3442 71.32C50.6376 70.6133 50.7842 69.84 50.7842 69C50.7842 68.16 50.6376 67.3933 50.3442 66.7C50.0509 65.9933 49.6376 65.38 49.1042 64.86C48.5842 64.3267 47.9642 63.92 47.2442 63.64C46.5376 63.3467 45.7642 63.2 44.9242 63.2C44.0842 63.2 43.3042 63.3467 42.5842 63.64C41.8642 63.92 41.2376 64.3267 40.7042 64.86C40.1842 65.38 39.7709 65.9933 39.4642 66.7C39.1709 67.3933 39.0242 68.16 39.0242 69C39.0242 69.8267 39.1709 70.5933 39.4642 71.3C39.7709 72.0067 40.1842 72.6267 40.7042 73.16C41.2376 73.68 41.8642 74.0867 42.5842 74.38C43.3042 74.66 44.0842 74.8 44.9242 74.8ZM57.6816 76V62H58.9016L68.5616 74.16H67.9216V62H69.3816V76H68.1616L58.5216 63.84H59.1616V76H57.6816Z" fill="white"/>
</g>
<defs>
<clipPath id="clip0_7_2">
<rect width="83" height="95" fill="white"/>
</clipPath>
</defs>
</svg>
